<?xml version="1.0" encoding="utf-8" ?><svg xmlns="http://www.w3.org/2000/svg" xmlns:xlink="http://www.w3.org/1999/xlink" width="170" height="181" viewBox="0 0 170 181"><path fill="#9F45F1" d="M55.8203 14.5418C57.1027 14.4663 58.9547 14.3702 60.0051 15.217C62.171 16.9629 61.0247 30.5731 61.0013 33.8572C60.9864 35.9467 61.1211 38.0031 61.3264 40.0815C65.1326 40.6914 68.6735 41.0017 72.5002 40.417C73.5094 33.3466 72.7216 26.1521 73.1075 19.038C73.1473 18.3045 73.353 16.1226 73.9233 15.6716C75.3482 14.5448 79.0565 15.0403 80.824 15.1661C81.0805 17.4201 80.9733 21.5944 80.9468 23.963C80.885 29.4948 80.83 34.3607 81.271 39.9046C85.214 40.6825 88.6207 40.6022 92.5995 40.4281C92.8537 37.9492 93.026 35.7082 93.1018 33.2855C93.2166 29.6151 92.2451 18.7416 94.0372 15.8921C95.5829 14.755 99.2213 15.1325 101.133 15.2898C102.068 22.4284 100.996 32.0307 101.61 40.0892C105.74 40.997 108.677 41.0195 112.85 40.3764C113.027 38.2135 113.112 36.0441 113.105 33.874C113.059 28.5462 112.581 23.8971 113.231 18.3766C113.736 14.0928 118.656 14.6838 120.6 15.9624C122.039 16.9089 121.45 25.841 121.387 28.0053C121.235 32.041 121.206 36.0805 121.3 40.118C130.915 41.1649 137.316 44.8819 139.907 54.9093C140.414 56.8698 140.572 58.8178 141.071 60.7911C145.812 61.3296 161.403 60.2696 164.263 62.1593C164.9 62.5801 165.182 63.2491 165.304 63.9818C165.524 65.3104 165.369 67.4729 164.552 68.5656C164.082 69.1939 163.376 69.4918 162.629 69.6397C159.681 70.2228 156.42 69.9862 153.425 69.9538C149.135 69.9074 144.947 69.8939 140.685 70.4496C140.079 81.2608 138.44 83.8945 150.865 82.9651C154.05 82.7269 159.42 82.6494 162.584 83.1068C163.754 83.9086 164.571 84.8922 164.89 86.3005C166.256 92.3541 158.741 92.0533 154.85 91.8926C149.988 91.6917 145.648 91.5137 140.842 92.5147C140.119 96.8576 140.224 99.5375 140.701 103.846C146.449 104.665 156.079 104.083 162.34 104.344C165.66 106.518 164.649 112.152 163.649 112.382C157.109 113.886 147.544 113.269 140.772 113.195C140.557 117.609 140.171 120.843 140.897 125.233C149.095 127.257 156.123 124.671 163.936 126.693C165.075 126.988 164.837 132.624 163.622 133.918C160.805 135.377 144.476 134.712 140.956 134.282C137.272 143.642 132.107 148.733 121.777 149.69C121.643 154.398 122.314 170.572 121.077 173.554C120.703 174.452 119.982 175.162 119.079 175.522C117.536 176.125 116.044 175.543 114.644 174.938C112.264 172.062 113.833 155.216 112.926 149.305C109.969 149.55 104.901 149.44 101.558 149.57C101.3 151.848 101.05 154.124 101.021 156.419C100.981 159.658 102.131 172.739 100.331 174.825C99.7257 175.527 98.532 175.586 97.6715 175.654C96.8112 175.723 94.9021 175.828 94.229 175.19C92.182 173.249 93.0245 153.408 93.0177 149.784C90.3214 149.666 85.0495 148.856 82.6571 149.756C79.6856 150.874 82.9197 169.729 80.9533 173.884C80.5822 174.668 79.9824 175.28 79.148 175.556C77.8953 175.97 75.581 175.76 74.4081 175.186C71.8899 172.826 73.5848 155.405 72.6488 149.803C69.6814 149.23 64.6036 149.514 61.5897 149.724C61.6388 150.652 61.633 153.905 61.5496 154.784C61.2457 157.99 62.2812 172.982 60.7074 174.845C58.1989 176.649 53.8556 176.159 53.3015 172.465C52.7494 168.785 52.9508 165.273 53.0018 161.574L53.0665 149.797C42.5805 149.392 37.7934 142.71 33.4878 134.272C27.1126 133.951 20.2785 134.64 13.8816 134.232C12.5418 134.085 10.1349 133.493 9.3921 132.229C7.59351 129.168 9.28557 127.203 11.5064 125.579C14.5155 125.215 18.7099 125.408 21.8093 125.449C25.8658 125.483 29.9224 125.47 33.9786 125.41C34.1648 121.286 34.0445 117.358 33.8968 113.235C28.4444 113.212 13.7435 113.889 9.74619 112.262C9.63587 111.859 9.53499 111.454 9.44364 111.046C6.68913 98.7034 24.2405 106.082 31.1517 104.182C35.8781 102.883 34.2971 95.155 33.5666 92.2692C26.4698 90.3387 17.2082 93.1815 10.1412 91.0719C9.52435 90.8877 9.31808 89.3407 9.19797 88.7666C8.08617 81.9531 12.1061 82.886 17.0208 82.5028C19.9847 82.2718 31.8989 83.9263 33.5327 81.5262C34.9658 79.4208 34.0721 72.9775 33.6366 70.261C27.4433 69.3487 21.8249 70.0106 15.6253 70.0355C12.1814 69.8156 9.12273 70.0988 8.78846 65.7345C8.30176 59.3801 16.4379 60.9264 20.7137 60.9934C24.9293 61.0476 29.1452 61.0658 33.3611 61.0482C34.7263 49.7585 41.1828 40.8889 53.1975 39.9897C52.9086 36.764 52.5968 17.9324 53.7004 15.6468C54.2807 14.9823 54.989 14.8251 55.8203 14.5418ZM112.247 129.247C117.61 129.112 120.904 127.955 121.532 122.043C122.323 114.605 121.899 107.132 122.015 99.6654C122.02 91.2095 122.108 82.6614 122.015 74.248C121.974 70.5623 121.8 64.1183 118.906 61.6411C117.989 60.8562 115.179 60.3312 113.985 60.3002C104.894 60.064 95.4784 60.1154 86.3658 60.2486C79.2235 60.353 70.3371 59.6317 63.5841 60.095C63.4515 60.1038 63.3189 60.1138 63.1865 60.125C56.9593 60.4189 53.4936 61.0854 52.8962 68.281C52.6499 71.247 52.7265 74.0785 52.7267 77.0507L52.739 91.5998C52.7458 101.332 52.6275 111.075 52.8021 120.798C52.8992 126.206 55.4696 128.895 60.9207 129.132C67.676 129.426 74.4546 129.218 81.2149 129.168L112.247 129.247Z"/><path fill="#9F45F1" d="M66.6068 68.1065C70.1752 67.772 79.147 68.0127 83.0287 68.0128L98.0272 68.0222C102.339 68.0282 109.015 67.8164 113.039 68.8904C114.652 73.6531 114.271 78.5768 114.27 83.6042C110.484 83.2342 100.676 82.3008 97.6669 84.4565C93.4075 87.508 92.0059 88.3778 86.8214 90.1271C75.3654 94.744 66.7167 101.968 60.0968 112.331C59.7465 107.249 59.1055 71.3654 61.0346 69.3306C62.2102 68.0905 64.9971 68.1978 66.6068 68.1065Z"/><path fill="#9F45F1" d="M103.089 87.5363C107.453 87.4053 109.824 87.8809 114.045 88.7067C113.997 92.8955 113.984 97.0846 114.006 101.274C109.811 101.005 103.859 100.255 99.8216 101.428C98.0069 101.955 95.1554 103.89 93.343 104.823C88.6854 107.22 83.4572 109.217 79.7935 113.083C77.1786 115.759 75.7092 118.475 73.3823 121.33C73.0429 121.747 72.0788 121.546 71.471 121.501C66.6665 121.588 62.5311 122.522 59.5472 118.167C62.9607 116.07 65.212 111.746 67.8974 108.577C74.3091 101.013 83.2031 94.6584 92.9093 92.2533C94.1189 91.9536 96.8954 93.2176 98.3689 92.4547C100.495 91.3541 101.208 88.7583 103.089 87.5363Z"/><path fill="#9F45F1" d="M103.873 105.574C108.14 105.572 109.83 105.923 114.016 106.789C114.216 111.866 115.36 118.068 110.969 121.486C102.57 121.655 93.5726 121.487 85.125 121.484C82.6178 121.462 80.1104 121.505 77.6053 121.611C82.4615 114.789 85.8359 111.598 93.8725 108.446C97.7511 117.254 100.164 106.329 103.873 105.574Z"/></svg>